<svg xmlns="http://www.w3.org/2000/svg" viewBox="0 0 1000 1000"><defs><style>.cls-1{fill:#fff;fill-rule:evenodd;}</style></defs><title>LUPA logo 233</title><g id="Layer_1" data-name="Layer 1"><path class="cls-1" d="M728.06,664.17a279.19,279.19,0,0,0,52.88-165.34C780.18,344.51,653.34,219,499,219.81c-153.71.8-278.15,125.24-278.95,279-.8,154.32,124.7,281.16,279,281.92A279.12,279.12,0,0,0,664.43,727.8L861.77,925.15a16.24,16.24,0,0,0,23,0l40.68-40.69a16.22,16.22,0,0,0,0-23Zm-418-162.27c-.9-106.48,85.59-193,192.07-192.07,103.39.88,187.88,85.37,188.75,188.76.91,106.48-85.58,193-192.06,192.07C395.46,689.78,311,605.29,310.09,501.9Z"/></g></svg>